<svg xmlns="http://www.w3.org/2000/svg" style="display: none;">
  <symbol id="icon-burger" viewBox="0 0 28 22">
    <path d="M2 2H26" stroke="#006C83" stroke-width="3" stroke-linecap="round"/>
    <path d="M2 11H26" stroke="#006C83" stroke-width="3" stroke-linecap="round"/>
    <path d="M2 20H26" stroke="#006C83" stroke-width="3" stroke-linecap="round"/>
  </symbol>
  <symbol id="check-circle" viewBox="0 0 24 24" xmlns="http://www.w3.org/2000/svg">
  <circle cx="12" cy="12" r="10" fill="currentColor"/>
  <path d="M8 12L11 15L17 9" stroke="white" stroke-width="2" fill="none" stroke-linecap="round" stroke-linejoin="round"/>
</symbol>
  <symbol id="icon-arrow" viewBox="0 0 33 32">
    <path d="M22.3637 11.5948L22.3637 22.4736C22.3637 22.8791 22.5012 23.2193 22.776 23.4942C23.0508 23.769 23.3905 23.9059 23.7952 23.905C24.1998 23.904 24.5395 23.7666 24.8143 23.4927C25.0891 23.2188 25.2266 22.8791 25.2266 22.4736L25.2266 8.15944C25.2266 7.75387 25.0891 7.41415 24.8143 7.14027C24.5395 6.8664 24.1998 6.72898 23.7952 6.72803L9.48104 6.72803C9.07547 6.72803 8.73527 6.86544 8.46044 7.14028C8.18561 7.41511 8.04867 7.75483 8.04963 8.15944C8.05058 8.56405 8.188 8.90425 8.46187 9.18004C8.73575 9.45582 9.07547 9.59276 9.48104 9.59085L20.3598 9.59085L7.6202 22.3304C7.35778 22.5928 7.22656 22.9268 7.22656 23.3324C7.22656 23.738 7.35778 24.072 7.6202 24.3344C7.88263 24.5968 8.21662 24.728 8.62219 24.728C9.02776 24.728 9.36175 24.5968 9.62418 24.3344L22.3637 11.5948Z" fill="white"/>
  </symbol>

  <symbol id="icon-dental" viewBox="0 0 45 48" fill="none">
    <path d="M32.5781 10.9426L27.5484 12.9225L32.5781 14.9001C33.0397 15.0837 33.4082 15.4403 33.6027 15.8914C33.7972 16.3426 33.8017 16.8513 33.6152 17.3057C33.4288 17.7601 33.0666 18.123 32.6083 18.3145C32.1501 18.506 31.6334 18.5104 31.1719 18.3268L22.5 14.9093L13.8281 18.3268C13.5996 18.4177 13.3551 18.4634 13.1086 18.4613C12.8622 18.4592 12.6185 18.4093 12.3917 18.3145C12.1648 18.2197 11.9591 18.0818 11.7863 17.9087C11.6135 17.7356 11.4771 17.5307 11.3848 17.3057C11.2924 17.0807 11.246 16.84 11.2482 16.5973C11.2503 16.3547 11.301 16.1148 11.3973 15.8914C11.4936 15.668 11.6336 15.4655 11.8094 15.2954C11.9852 15.1253 12.1933 14.991 12.4219 14.9001L17.4516 12.9225L12.4219 10.9426C12.1933 10.8516 11.9852 10.7173 11.8094 10.5472C11.6336 10.3771 11.4936 10.1746 11.3973 9.9512C11.301 9.72782 11.2503 9.48794 11.2482 9.24528C11.246 9.00261 11.2924 8.7619 11.3848 8.5369C11.4771 8.31189 11.6135 8.107 11.7863 7.93391C11.9591 7.76082 12.1648 7.62294 12.3917 7.52812C12.6185 7.4333 12.8622 7.38341 13.1086 7.38129C13.3551 7.37918 13.5996 7.42488 13.8281 7.51579L22.5 10.9333L31.1719 7.51579C31.4004 7.42488 31.6449 7.37918 31.8914 7.38129C32.1378 7.38341 32.3815 7.4333 32.6083 7.52812C32.8352 7.62294 33.0409 7.76082 33.2137 7.93391C33.3865 8.107 33.5229 8.31189 33.6152 8.5369C33.7076 8.7619 33.754 9.00261 33.7518 9.24528C33.7497 9.48794 33.699 9.72782 33.6027 9.9512C33.5064 10.1746 33.3664 10.3771 33.1906 10.5472C33.0148 10.7173 32.8067 10.8516 32.5781 10.9426ZM45 12.8648C45 22.7228 43.125 30.2639 41.557 34.8514C39.5109 40.805 36.7219 45.3486 33.9047 47.3123C33.3687 47.692 32.7387 47.9226 32.0809 47.9799C31.4231 48.0371 30.7618 47.9189 30.1664 47.6377C29.5628 47.3573 29.0455 46.9241 28.6675 46.3825C28.2895 45.8409 28.0643 45.2102 28.0148 44.5548C27.8156 41.9011 26.8312 33.2292 22.5 33.2292C18.1688 33.2292 17.1844 41.9034 16.9852 44.5617C16.9149 45.4945 16.4896 46.3668 15.7944 47.0043C15.0992 47.6417 14.1852 47.9973 13.2352 48C12.4671 47.999 11.7188 47.7609 11.0953 47.3193C8.28281 45.3509 5.48906 40.8073 3.44297 34.8583C1.875 30.2639 0 22.7228 0 12.8648C0.0154948 9.44752 1.40514 6.17545 3.86488 3.76448C6.32462 1.35351 9.65416 -3.40524e-05 13.125 6.42525e-10H31.875C35.3458 -3.40524e-05 38.6754 1.35351 41.1351 3.76448C43.5949 6.17545 44.9845 9.44752 45 12.8648ZM41.25 12.8648C41.2345 10.4267 40.24 8.09377 38.4835 6.3752C36.727 4.65664 34.3513 3.69208 31.875 3.69213H13.125C10.6483 3.69209 8.27223 4.65696 6.51568 6.37602C4.75914 8.09508 3.76486 10.4286 3.75 12.8671C3.75 22.2243 5.51016 29.3432 6.99609 33.6676C9.58594 41.2042 12.3867 43.6756 13.2328 44.2825C13.9617 34.7683 17.2477 29.537 22.5 29.537C27.7523 29.537 31.043 34.7776 31.7555 44.2917C32.5992 43.6941 35.4047 41.2319 38.0039 33.6768C39.4898 29.3432 41.25 22.2243 41.25 12.8671V12.8648Z" fill="currentColor"/>
  </symbol>

  <!-- Иконка эндоскопии -->
  <symbol id="icon-endoscope" viewBox="0 0 49 49" fill="none">
    <path d="M45.2308 15.0769H33.9231V3.76923C33.9231 2.76957 33.526 1.81085 32.8191 1.10398C32.1122 0.397114 31.1535 0 30.1538 0H18.8462C17.8465 0 16.8878 0.397114 16.1809 1.10398C15.474 1.81085 15.0769 2.76957 15.0769 3.76923V15.0769H3.76923C2.76957 15.0769 1.81085 15.474 1.10398 16.1809C0.397114 16.8878 0 17.8465 0 18.8462V30.1538C0 31.1535 0.397114 32.1122 1.10398 32.8191C1.81085 33.526 2.76957 33.9231 3.76923 33.9231H15.0769V45.2308C15.0769 46.2304 15.474 47.1892 16.1809 47.896C16.8878 48.6029 17.8465 49 18.8462 49H30.1538C31.1535 49 32.1122 48.6029 32.8191 47.896C33.526 47.1892 33.9231 46.2304 33.9231 45.2308V33.9231H45.2308C46.2304 33.9231 47.1892 33.526 47.896 32.8191C48.6029 32.1122 49 31.1535 49 30.1538V18.8462C49 17.8465 48.6029 16.8878 47.896 16.1809C47.1892 15.474 46.2304 15.0769 45.2308 15.0769ZM45.2308 30.1538H32.0385C31.5386 30.1538 31.0593 30.3524 30.7058 30.7058C30.3524 31.0593 30.1538 31.5386 30.1538 32.0385V45.2308H18.8462V32.0385C18.8462 31.5386 18.6476 31.0593 18.2942 30.7058C17.9407 30.3524 17.4614 30.1538 16.9615 30.1538H3.76923V18.8462H16.9615C17.4614 18.8462 17.9407 18.6476 18.2942 18.2942C18.6476 17.9407 18.8462 17.4614 18.8462 16.9615V3.76923H30.1538V16.9615C30.1538 17.4614 30.3524 17.9407 30.7058 18.2942C31.0593 18.6476 31.5386 18.8462 32.0385 18.8462H45.2308V30.1538Z" fill="currentColor"/>
  </symbol>

  <!-- Иконка пластической хирургии -->
  <symbol id="icon-plastic" viewBox="0 0 52 52" fill="none">
    <path d="M51.4558 11.6866L40.3134 0.544225C40.1408 0.371685 39.936 0.234818 39.7105 0.141439C39.4851 0.048061 39.2435 0 38.9995 0C38.7555 0 38.5139 0.048061 38.2884 0.141439C38.063 0.234818 37.8582 0.371685 37.6856 0.544225C37.5131 0.716766 37.3762 0.921602 37.2828 1.14704C37.1894 1.37247 37.1414 1.61409 37.1414 1.8581C37.1414 2.10211 37.1894 2.34373 37.2828 2.56917C37.3762 2.7946 37.5131 2.99944 37.6856 3.17198L41.9453 7.42931L35.2853 14.0892L27.3139 6.11543C26.9654 5.76697 26.4928 5.57121 26 5.57121C25.5072 5.57121 25.0346 5.76697 24.6861 6.11543C24.3377 6.46389 24.1419 6.93651 24.1419 7.42931C24.1419 7.92211 24.3377 8.39472 24.6861 8.74319L26.1602 10.2149L6.66095 29.7141C6.31456 30.0578 6.03993 30.4668 5.85303 30.9176C5.66613 31.3683 5.57068 31.8516 5.57224 32.3396V43.8023L0.544225 48.828C0.371685 49.0006 0.234818 49.2054 0.141439 49.4308C0.048061 49.6563 0 49.8979 0 50.1419C0 50.3859 0.048061 50.6275 0.141439 50.853C0.234818 51.0784 0.371685 51.2832 0.544225 51.4558C0.892687 51.8042 1.3653 52 1.8581 52C2.10211 52 2.34373 51.9519 2.56917 51.8586C2.7946 51.7652 2.99944 51.6283 3.17198 51.4558L8.19767 46.4278H19.6604C20.1484 46.4293 20.6317 46.3339 21.0824 46.147C21.5332 45.9601 21.9422 45.6854 22.2859 45.3391L41.7851 25.8398L43.2568 27.3139C43.4294 27.4864 43.6342 27.6233 43.8596 27.7167C44.0851 27.81 44.3267 27.8581 44.5707 27.8581C44.8147 27.8581 45.0563 27.81 45.2818 27.7167C45.5072 27.6233 45.712 27.4864 45.8846 27.3139C46.0571 27.1413 46.194 26.9365 46.2874 26.7111C46.3807 26.4856 46.4288 26.244 46.4288 26C46.4288 25.756 46.3807 25.5144 46.2874 25.2889C46.194 25.0635 46.0571 24.8587 45.8846 24.6861L37.9108 16.7147L44.5707 10.0547L48.828 14.3144C49.1765 14.6629 49.6491 14.8586 50.1419 14.8586C50.6347 14.8586 51.1073 14.6629 51.4558 14.3144C51.8042 13.9659 52 13.4933 52 13.0005C52 12.5077 51.8042 12.0351 51.4558 11.6866ZM19.6604 42.7136H9.28638V32.3396L13.4648 28.1612L18.1864 32.8851C18.3589 33.0576 18.5638 33.1945 18.7892 33.2879C19.0146 33.3812 19.2562 33.4293 19.5003 33.4293C19.7443 33.4293 19.9859 33.3812 20.2113 33.2879C20.4368 33.1945 20.6416 33.0576 20.8141 32.8851C20.9867 32.7125 21.1235 32.5077 21.2169 32.2823C21.3103 32.0568 21.3584 31.8152 21.3584 31.5712C21.3584 31.3272 21.3103 31.0856 21.2169 30.8601C21.1235 30.6347 20.9867 30.4299 20.8141 30.2573L16.0902 25.5357L19.036 22.59L23.7576 27.3139C24.106 27.6623 24.5787 27.8581 25.0715 27.8581C25.5643 27.8581 26.0369 27.6623 26.3853 27.3139C26.7338 26.9654 26.9296 26.4928 26.9296 26C26.9296 25.5072 26.7338 25.0346 26.3853 24.6861L21.6614 19.9645L28.7856 12.8403L39.1597 23.2144L19.6604 42.7136Z" fill="currentColor"/>
  </symbol>

  <!-- Иконка частных клиник -->
  <symbol id="icon-private" viewBox="0 0 56 40" fill="none">
    <path d="M14.9333 15.2324C14.9333 14.7274 15.13 14.2431 15.4801 13.886C15.8301 13.529 16.3049 13.3284 16.8 13.3284H20.5333V9.52025C20.5333 9.01527 20.73 8.53097 21.0801 8.17389C21.4301 7.81681 21.9049 7.6162 22.4 7.6162C22.8951 7.6162 23.3699 7.81681 23.7199 8.17389C24.07 8.53097 24.2667 9.01527 24.2667 9.52025V13.3284H28C28.4951 13.3284 28.9699 13.529 29.3199 13.886C29.67 14.2431 29.8667 14.7274 29.8667 15.2324C29.8667 15.7374 29.67 16.2217 29.3199 16.5788C28.9699 16.9359 28.4951 17.1365 28 17.1365H24.2667V20.9446C24.2667 21.4495 24.07 21.9338 23.7199 22.2909C23.3699 22.648 22.8951 22.8486 22.4 22.8486C21.9049 22.8486 21.4301 22.648 21.0801 22.2909C20.73 21.9338 20.5333 21.4495 20.5333 20.9446V17.1365H16.8C16.3049 17.1365 15.8301 16.9359 15.4801 16.5788C15.13 16.2217 14.9333 15.7374 14.9333 15.2324ZM56 15.2324V30.4648C56 31.4748 55.6067 32.4434 54.9065 33.1575C54.2064 33.8717 53.2568 34.2729 52.2667 34.2729H48.3C47.8888 35.9112 46.9547 37.3633 45.645 38.4002C44.3353 39.4372 42.7246 40 41.0667 40C39.4087 40 37.798 39.4372 36.4883 38.4002C35.1786 37.3633 34.2446 35.9112 33.8333 34.2729H22.1667C21.7554 35.9112 20.8214 37.3633 19.5117 38.4002C18.202 39.4372 16.5912 40 14.9333 40C13.2754 40 11.6646 39.4372 10.355 38.4002C9.04531 37.3633 8.11123 35.9112 7.7 34.2729H3.73333C2.74319 34.2729 1.7936 33.8717 1.09347 33.1575C0.393332 32.4434 0 31.4748 0 30.4648V3.8081C0 2.79813 0.393332 1.82952 1.09347 1.11537C1.7936 0.401209 2.74319 0 3.73333 0H39.2C39.6951 0 40.1699 0.200605 40.5199 0.557684C40.87 0.914763 41.0667 1.39907 41.0667 1.90405V3.8081H49.1353C49.8822 3.80567 50.6125 4.0328 51.231 4.45989C51.8494 4.88698 52.3274 5.49421 52.6027 6.20245L55.8693 14.5327C55.9561 14.7553 56.0004 14.9928 56 15.2324ZM41.0667 7.6162V13.3284H51.3753L49.1353 7.6162H41.0667ZM3.73333 30.4648H7.7C8.11123 28.8265 9.04531 27.3745 10.355 26.3375C11.6646 25.3006 13.2754 24.7377 14.9333 24.7377C16.5912 24.7377 18.202 25.3006 19.5117 26.3375C20.8214 27.3745 21.7554 28.8265 22.1667 30.4648H33.8333C34.0837 29.4863 34.522 28.5682 35.1228 27.7638C35.7236 26.9594 36.475 26.2845 37.3333 25.7785V3.8081H3.73333V30.4648ZM18.6667 32.3689C18.6667 31.6157 18.4477 30.8794 18.0375 30.2532C17.6273 29.627 17.0442 29.1389 16.362 28.8506C15.6798 28.5624 14.9292 28.487 14.205 28.6339C13.4808 28.7809 12.8156 29.1436 12.2935 29.6761C11.7714 30.2087 11.4158 30.8872 11.2717 31.6259C11.1277 32.3646 11.2016 33.1303 11.4842 33.8262C11.7667 34.522 12.2453 35.1167 12.8592 35.5352C13.4731 35.9536 14.1949 36.177 14.9333 36.177C15.9235 36.177 16.8731 35.7758 17.5732 35.0616C18.2733 34.3474 18.6667 33.3788 18.6667 32.3689ZM44.8 32.3689C44.8 31.6157 44.581 30.8794 44.1708 30.2532C43.7606 29.627 43.1775 29.1389 42.4953 28.8506C41.8132 28.5624 41.0625 28.487 40.3383 28.6339C39.6141 28.7809 38.9489 29.1436 38.4268 29.6761C37.9047 30.2087 37.5491 30.8872 37.4051 31.6259C37.261 32.3646 37.3349 33.1303 37.6175 33.8262C37.9001 34.522 38.3786 35.1167 38.9925 35.5352C39.6065 35.9536 40.3283 36.177 41.0667 36.177C42.0568 36.177 43.0064 35.7758 43.7065 35.0616C44.4067 34.3474 44.8 33.3788 44.8 32.3689ZM52.2667 30.4648V17.1365H41.0667V24.7527C42.722 24.7543 44.3301 25.3159 45.6391 26.3495C46.948 27.3832 47.8838 28.8305 48.3 30.4648H52.2667Z" fill="currentColor"/>
  </symbol>

  <!-- Иконка амбулатории -->
  <symbol id="icon-ambulatory" viewBox="0 0 54 45" fill="none">
    <path d="M52.1379 41.25H50.2759V22.5C50.2759 21.5054 49.8835 20.5516 49.1851 19.8484C48.4867 19.1451 47.5394 18.75 46.5517 18.75H33.5172V3.75C33.5172 2.75544 33.1249 1.80161 32.4265 1.09835C31.7281 0.395088 30.7808 0 29.7931 0H7.44828C6.46057 0 5.51332 0.395088 4.81491 1.09835C4.1165 1.80161 3.72414 2.75544 3.72414 3.75V41.25H1.86207C1.36822 41.25 0.894593 41.4475 0.545387 41.7992C0.196182 42.1508 0 42.6277 0 43.125C0 43.6223 0.196182 44.0992 0.545387 44.4508C0.894593 44.8025 1.36822 45 1.86207 45H52.1379C52.6318 45 53.1054 44.8025 53.4546 44.4508C53.8038 44.0992 54 43.6223 54 43.125C54 42.6277 53.8038 42.1508 53.4546 41.7992C53.1054 41.4475 52.6318 41.25 52.1379 41.25ZM46.5517 22.5V41.25H33.5172V22.5H46.5517ZM7.44828 3.75H29.7931V41.25H26.069V30C26.069 29.5027 25.8728 29.0258 25.5236 28.6742C25.1744 28.3225 24.7007 28.125 24.2069 28.125H13.0345C12.5406 28.125 12.067 28.3225 11.7178 28.6742C11.3686 29.0258 11.1724 29.5027 11.1724 30V41.25H7.44828V3.75ZM22.3448 41.25H14.8966V31.875H22.3448V41.25ZM11.1724 15C11.1724 14.5027 11.3686 14.0258 11.7178 13.6742C12.067 13.3225 12.5406 13.125 13.0345 13.125H16.7586V9.375C16.7586 8.87772 16.9548 8.40081 17.304 8.04918C17.6532 7.69754 18.1268 7.5 18.6207 7.5C19.1145 7.5 19.5882 7.69754 19.9374 8.04918C20.2866 8.40081 20.4828 8.87772 20.4828 9.375V13.125H24.2069C24.7007 13.125 25.1744 13.3225 25.5236 13.6742C25.8728 14.0258 26.069 14.5027 26.069 15C26.069 15.4973 25.8728 15.9742 25.5236 16.3258C25.1744 16.6775 24.7007 16.875 24.2069 16.875H20.4828V20.625C20.4828 21.1223 20.2866 21.5992 19.9374 21.9508C19.5882 22.3025 19.1145 22.5 18.6207 22.5C18.1268 22.5 17.6532 22.3025 17.304 21.9508C16.9548 21.5992 16.7586 21.1223 16.7586 20.625V16.875H13.0345C12.5406 16.875 12.067 16.6775 11.7178 16.3258C11.3686 15.9742 11.1724 15.4973 11.1724 15Z" fill="currentColor"/>
  </symbol>

<!-- Иконка медицинского образования -->
  <symbol id="icon-education" viewBox="0 0 49 47" xmlns="http://www.w3.org/2000/svg">
  <path d="M47.711 7.61282L25.0958 0.0964428C24.7089 -0.0321476 24.2907 -0.0321476 23.9038 0.0964428L1.28859 7.61282C0.913336 7.73755 0.586952 7.97685 0.355679 8.29682C0.124406 8.61679 -2.93109e-05 9.0012 5.17878e-09 9.39561V28.1865C5.17878e-09 28.6849 0.198555 29.1629 0.551986 29.5153C0.905417 29.8677 1.38477 30.0656 1.8846 30.0656C2.38443 30.0656 2.86378 29.8677 3.21721 29.5153C3.57064 29.1629 3.7692 28.6849 3.7692 28.1865V12.0028L11.6822 14.6312C9.57979 18.0178 8.91125 22.0979 9.82332 25.9756C10.7354 29.8532 13.1535 33.2115 16.5468 35.313C12.3064 36.9713 8.64089 39.9708 5.96004 44.0719C5.82062 44.2785 5.72378 44.5107 5.67514 44.755C5.62651 44.9993 5.62705 45.2507 5.67675 45.4948C5.72644 45.7388 5.82429 45.9706 5.9646 46.1766C6.10492 46.3826 6.28491 46.5588 6.4941 46.6948C6.70329 46.8309 6.93752 46.9241 7.18317 46.9691C7.42882 47.0141 7.68098 47.0099 7.92501 46.9569C8.16904 46.9039 8.40006 46.803 8.60465 46.6602C8.80924 46.5173 8.98331 46.3353 9.11675 46.1248C12.6669 40.6943 18.2735 37.582 24.4998 37.582C30.726 37.582 36.3327 40.6943 39.8828 46.1248C40.1592 46.5345 40.5862 46.8192 41.0715 46.9174C41.5568 47.0156 42.0613 46.9195 42.476 46.6498C42.8908 46.3801 43.1824 45.9584 43.2878 45.476C43.3933 44.9937 43.3041 44.4893 43.0395 44.0719C40.3587 39.9708 36.679 36.9713 32.4528 35.313C35.8428 33.2116 38.2586 29.8555 39.1706 25.9807C40.0825 22.1059 39.4161 18.0286 37.3174 14.643L47.711 11.1901C48.0863 11.0655 48.4128 10.8262 48.6441 10.5062C48.8755 10.1863 49 9.80181 49 9.40735C49 9.0129 48.8755 8.62844 48.6441 8.30847C48.4128 7.98849 48.0863 7.74922 47.711 7.62456V7.61282ZM35.8074 22.5493C35.8079 24.3317 35.3845 26.0889 34.5721 27.6766C33.7596 29.2643 32.5811 30.6374 31.1334 31.683C29.6857 32.7287 28.0099 33.4173 26.2436 33.6921C24.4774 33.967 22.6709 33.8204 20.9724 33.2644C19.2739 32.7084 17.7319 31.7587 16.4728 30.4934C15.2137 29.2281 14.2734 27.6832 13.7291 25.9853C13.1848 24.2875 13.052 22.4852 13.3415 20.7263C13.6311 18.9674 14.3347 17.302 15.3948 15.8667L23.9038 18.6854C24.2907 18.814 24.7089 18.814 25.0958 18.6854L33.6048 15.8667C35.0366 17.8022 35.8085 20.1443 35.8074 22.5493ZM24.4998 14.9319L7.84464 9.39561L24.4998 3.85933L41.1549 9.39561L24.4998 14.9319Z" fill="#00A1A1"/>
</symbol>

  <symbol id="icon-arrow-down" viewBox="0 0 20 12" fill="none">
  <path d="M0.454805 0.939672C0.736096 0.658465 1.11756 0.500492 1.5153 0.500492C1.91305 0.500492 2.29451 0.658465 2.5758 0.939672L10.0008 8.36467L17.4258 0.939672C17.7087 0.666435 18.0876 0.515244 18.4809 0.518661C18.8742 0.522079 19.2504 0.679832 19.5285 0.957944C19.8066 1.23606 19.9644 1.61228 19.9678 2.00557C19.9712 2.39887 19.82 2.77777 19.5468 3.06067L11.0613 11.5462C10.78 11.8274 10.3986 11.9854 10.0008 11.9854C9.60306 11.9854 9.2216 11.8274 8.9403 11.5462L0.454805 3.06067C0.173598 2.77938 0.015625 2.39792 0.015625 2.00017C0.015625 1.60243 0.173598 1.22096 0.454805 0.939672Z" fill="currentColor"/>
</symbol>

  <symbol id="line-divider" viewBox="0 0 162 2">
  <path d="M1 1H81H161" stroke="currentColor" stroke-width="2" stroke-linecap="round"/>
  </symbol>
  <symbol id="icon-close" viewBox="0 0 28 22">
    <path d="M2 20L25.9998 2" stroke="currentColor" stroke-width="3" stroke-linecap="round"/>
    <path d="M26 20L2.0002 2" stroke="currentColor" stroke-width="3" stroke-linecap="round"/>
  </symbol>
  <!-- Соцсети -->
  <symbol id="icon-facebook" viewBox="0 0 24 24" fill="none">
  <path fill-rule="evenodd" clip-rule="evenodd" d="M11.6528 23.388L11.6407 23.3902L11.5626 23.4287L11.5406 23.4331L11.5252 23.4287L11.4471 23.3902C11.4353 23.3865 11.4265 23.3884 11.4206 23.3957L11.4162 23.4067L11.3975 23.8776L11.403 23.8996L11.414 23.9139L11.5285 23.9953L11.545 23.9997L11.5582 23.9953L11.6726 23.9139L11.6858 23.8963L11.6902 23.8776L11.6715 23.4078C11.6686 23.3961 11.6623 23.3895 11.6528 23.388ZM11.9443 23.2637L11.93 23.2659L11.7265 23.3682L11.7155 23.3792L11.7122 23.3913L11.732 23.8644L11.7375 23.8776L11.7463 23.8853L11.9675 23.9876C11.9814 23.9913 11.992 23.9884 11.9994 23.9788L12.0038 23.9634L11.9664 23.2879C11.9627 23.2747 11.9554 23.2666 11.9443 23.2637ZM11.1577 23.2659C11.1528 23.2629 11.1471 23.262 11.1415 23.2632C11.136 23.2644 11.1311 23.2678 11.128 23.2725L11.1214 23.2879L11.084 23.9634C11.0847 23.9766 11.091 23.9854 11.1027 23.9898L11.1192 23.9876L11.3403 23.8853L11.3513 23.8765L11.3557 23.8644L11.3744 23.3913L11.3711 23.3781L11.3601 23.3671L11.1577 23.2659Z" fill="#currentColor"/>
  <path fill-rule="evenodd" clip-rule="evenodd" d="M2.4 12C2.40017 10.1525 2.93342 8.34437 3.93575 6.79246C4.93808 5.24055 6.36691 4.01081 8.05081 3.25082C9.7347 2.49082 11.6021 2.23285 13.429 2.50785C15.2559 2.78285 16.9646 3.57915 18.3501 4.80119C19.7357 6.02323 20.7392 7.61911 21.2402 9.39733C21.7412 11.1755 21.7185 13.0606 21.1748 14.8262C20.6311 16.5918 19.5895 18.1631 18.1749 19.3514C16.7604 20.5397 15.033 21.2947 13.2 21.5256V14.4H15.6C15.9183 14.4 16.2235 14.2736 16.4485 14.0485C16.6736 13.8235 16.8 13.5183 16.8 13.2C16.8 12.8817 16.6736 12.5765 16.4485 12.3515C16.2235 12.1264 15.9183 12 15.6 12H13.2V9.6C13.2 9.28174 13.3264 8.97652 13.5515 8.75147C13.7765 8.52643 14.0817 8.4 14.4 8.4H15C15.3183 8.4 15.6235 8.27357 15.8485 8.04853C16.0736 7.82348 16.2 7.51826 16.2 7.2C16.2 6.88174 16.0736 6.57652 15.8485 6.35147C15.6235 6.12643 15.3183 6 15 6H14.4C13.4452 6 12.5295 6.37929 11.8544 7.05442C11.1793 7.72955 10.8 8.64522 10.8 9.6V12H8.4C8.08174 12 7.77652 12.1264 7.55147 12.3515C7.32643 12.5765 7.2 12.8817 7.2 13.2C7.2 13.5183 7.32643 13.8235 7.55147 14.0485C7.77652 14.2736 8.08174 14.4 8.4 14.4H10.8V21.5256C8.47994 21.2333 6.34633 20.1042 4.7997 18.3504C3.25308 16.5965 2.39978 14.3384 2.4 12ZM12 24C18.6276 24 24 18.6276 24 12C24 5.3724 18.6276 0 12 0C5.3724 0 0 5.3724 0 12C0 18.6276 5.3724 24 12 24Z" fill="currentColor"/>
  </symbol>

  <symbol id="icon-instagram" viewBox="0 0 23 22">
    <path d="M11.5 0C8.51488 0 8.1395 0.01375 6.96663 0.066C5.79375 0.121 4.99487 0.30525 4.295 0.5775C3.56088 0.853626 2.89593 1.28676 2.34663 1.84663C1.7871 2.39621 1.35402 3.06108 1.0775 3.795C0.80525 4.4935 0.619625 5.29375 0.566 6.4625C0.51375 7.63812 0.5 8.01213 0.5 11.0014C0.5 13.9879 0.51375 14.3619 0.566 15.5347C0.621 16.7062 0.80525 17.5051 1.0775 18.205C1.35938 18.9282 1.73475 19.5415 2.34663 20.1534C2.95713 20.7652 3.57037 21.142 4.29363 21.4225C4.99487 21.6947 5.79238 21.8804 6.96388 21.934C8.13813 21.9862 8.51213 22 11.5 22C14.4879 22 14.8605 21.9862 16.0347 21.934C17.2049 21.879 18.0065 21.6947 18.7064 21.4225C19.44 21.1462 20.1045 20.7131 20.6534 20.1534C21.2652 19.5415 21.6406 18.9282 21.9225 18.205C22.1934 17.5051 22.379 16.7062 22.434 15.5347C22.4862 14.3619 22.5 13.9879 22.5 11C22.5 8.01213 22.4862 7.63813 22.434 6.46388C22.379 5.29375 22.1934 4.4935 21.9225 3.795C21.646 3.06106 21.2129 2.39618 20.6534 1.84663C20.1042 1.28655 19.4392 0.853387 18.705 0.5775C18.0037 0.30525 17.2035 0.119625 16.0334 0.066C14.8591 0.01375 14.4865 0 11.4973 0H11.5014H11.5ZM10.5141 1.98275H11.5014C14.4384 1.98275 14.7862 1.99238 15.9454 2.046C17.0179 2.09413 17.6009 2.27425 17.9886 2.42412C18.5015 2.6235 18.8686 2.86275 19.2536 3.24775C19.6386 3.63275 19.8765 3.9985 20.0759 4.51275C20.2271 4.89913 20.4059 5.48213 20.454 6.55463C20.5076 7.71375 20.5186 8.06163 20.5186 10.9973C20.5186 13.9329 20.5076 14.2821 20.454 15.4412C20.4059 16.5138 20.2258 17.0954 20.0759 17.4831C19.8995 17.9607 19.618 18.3926 19.2522 18.7467C18.8672 19.1318 18.5015 19.3696 17.9873 19.569C17.6023 19.7203 17.0192 19.899 15.9454 19.9485C14.7862 20.0007 14.4384 20.0131 11.5014 20.0131C8.56437 20.0131 8.21513 20.0007 7.056 19.9485C5.9835 19.899 5.40188 19.7203 5.01412 19.569C4.53631 19.3929 4.10405 19.1119 3.74913 18.7467C3.38303 18.392 3.10112 17.9598 2.92412 17.4818C2.77425 17.0954 2.59413 16.5124 2.546 15.4399C2.49375 14.2807 2.48275 13.9329 2.48275 10.9945C2.48275 8.0575 2.49375 7.711 2.546 6.55187C2.5955 5.47937 2.77425 4.89638 2.9255 4.50863C3.12488 3.99575 3.36413 3.62862 3.74913 3.24362C4.13412 2.85862 4.49987 2.62075 5.01412 2.42138C5.40188 2.27012 5.9835 2.09138 7.056 2.04188C8.07075 1.99513 8.464 1.98137 10.5141 1.98V1.98275ZM17.3726 3.80875C17.1993 3.80875 17.0276 3.84289 16.8675 3.90923C16.7073 3.97557 16.5618 4.0728 16.4392 4.19537C16.3167 4.31794 16.2194 4.46346 16.1531 4.62361C16.0868 4.78376 16.0526 4.9554 16.0526 5.12875C16.0526 5.30209 16.0868 5.47374 16.1531 5.63389C16.2194 5.79404 16.3167 5.93956 16.4392 6.06213C16.5618 6.1847 16.7073 6.28193 16.8675 6.34827C17.0276 6.41461 17.1993 6.44875 17.3726 6.44875C17.7227 6.44875 18.0585 6.30968 18.306 6.06213C18.5536 5.81458 18.6926 5.47884 18.6926 5.12875C18.6926 4.77866 18.5536 4.44292 18.306 4.19537C18.0585 3.94782 17.7227 3.80875 17.3726 3.80875ZM11.5014 5.3515C10.7521 5.33981 10.008 5.47729 9.31234 5.75594C8.61671 6.0346 7.98346 6.44885 7.44946 6.97458C6.91546 7.50032 6.49138 8.12703 6.20191 8.81823C5.91244 9.50944 5.76336 10.2513 5.76336 11.0007C5.76336 11.7501 5.91244 12.4919 6.20191 13.1831C6.49138 13.8743 6.91546 14.5011 7.44946 15.0268C7.98346 15.5525 8.61671 15.9668 9.31234 16.2454C10.008 16.5241 10.7521 16.6616 11.5014 16.6499C12.9844 16.6267 14.3988 16.0214 15.4393 14.9645C16.4799 13.9076 17.0631 12.4839 17.0631 11.0007C17.0631 9.51751 16.4799 8.09382 15.4393 7.03691C14.3988 5.97999 12.9844 5.37464 11.5014 5.3515ZM11.5014 7.33288C12.474 7.33288 13.4067 7.71923 14.0944 8.40695C14.7821 9.09467 15.1685 10.0274 15.1685 11C15.1685 11.9726 14.7821 12.9053 14.0944 13.593C13.4067 14.2808 12.474 14.6671 11.5014 14.6671C10.5288 14.6671 9.59605 14.2808 8.90833 13.593C8.22061 12.9053 7.83425 11.9726 7.83425 11C7.83425 10.0274 8.22061 9.09467 8.90833 8.40695C9.59605 7.71923 10.5288 7.33288 11.5014 7.33288Z" fill="currentColor" />
  </symbol>

  <symbol id="icon-telegram" viewBox="0 0 24 24" fill="none">
  <path d="M21.6 12C21.6 14.5461 20.5886 16.9879 18.7882 18.7882C16.9879 20.5886 14.5461 21.6 12 21.6C9.45392 21.6 7.01212 20.5886 5.21178 18.7882C3.41143 16.9879 2.4 14.5461 2.4 12C2.4 9.45392 3.41143 7.01212 5.21178 5.21178C7.01212 3.41143 9.45392 2.4 12 2.4C14.5461 2.4 16.9879 3.41143 18.7882 5.21178C20.5886 7.01212 21.6 9.45392 21.6 12ZM12 24C18.6276 24 24 18.6276 24 12C24 5.3724 18.6276 0 12 0C5.3724 0 0 5.3724 0 12C0 18.6276 5.3724 24 12 24ZM12.4296 8.8584C11.2632 9.344 8.9308 10.3492 5.4324 11.874C4.8636 12.0996 4.566 12.3204 4.5396 12.5364C4.494 12.9012 4.9512 13.0452 5.574 13.2408L5.8356 13.3248C6.4476 13.524 7.2732 13.7568 7.7016 13.7664C8.0904 13.7744 8.524 13.6144 9.0024 13.2864C12.2712 11.0784 13.9584 9.9628 14.064 9.9396C14.1396 9.9228 14.2428 9.9012 14.3124 9.9636C14.3832 10.026 14.376 10.1436 14.3688 10.176C14.3232 10.3692 12.528 12.0384 11.5992 12.9012C11.324 13.1604 11.0508 13.4216 10.7796 13.6848C10.2108 14.2332 9.7836 14.6448 10.8036 15.3168C11.8368 15.9984 12.8796 16.6776 13.8876 17.3964C14.3844 17.7516 14.8308 18.0684 15.3828 18.0192C15.7032 17.9892 16.0344 17.688 16.2024 16.788C16.6008 14.664 17.382 10.0584 17.562 8.16C17.5724 8.00253 17.5656 7.84438 17.5416 7.6884C17.5274 7.56286 17.4666 7.44723 17.3712 7.3644C17.2272 7.2468 17.0052 7.2228 16.9068 7.224C16.4556 7.2324 15.7632 7.4724 12.4308 8.8584" fill="currentColor" />
</symbol>

<symbol id="icon-whatsapp" viewBox="0 0 24 24" fill="none">
  <path d="M20.5025 3.49206C19.3967 2.38099 18.0796 1.50002 16.6282 0.900497C15.1767 0.300974 13.6198 -0.00511579 12.0482 6.4674e-05C5.46332 6.4674e-05 0.0964826 5.34005 0.0964826 11.892C0.0964826 13.992 0.651256 16.032 1.68844 17.832L0 24L6.33166 22.344C8.0804 23.292 10.0462 23.796 12.0482 23.796C18.6332 23.796 24 18.456 24 11.904C24 8.72404 22.7578 5.73605 20.5025 3.49206ZM12.0482 21.78C10.2633 21.78 8.51457 21.3 6.98291 20.4L6.6211 20.184L2.85829 21.168L3.8593 17.52L3.61809 17.148C2.62619 15.5725 2.09961 13.7512 2.09849 11.892C2.09849 6.44405 6.5608 2.00406 12.0362 2.00406C14.6894 2.00406 17.1859 3.03606 19.0553 4.90805C19.981 5.82469 20.7147 6.9151 21.2136 8.11604C21.7126 9.31698 21.9669 10.6045 21.9618 11.904C21.9859 17.352 17.5236 21.78 12.0482 21.78ZM17.4995 14.388C17.198 14.244 15.7266 13.524 15.4613 13.416C15.1839 13.32 14.991 13.272 14.7859 13.56C14.5809 13.86 14.0141 14.532 13.8452 14.724C13.6764 14.928 13.4955 14.952 13.194 14.796C12.8925 14.652 11.9276 14.328 10.794 13.32C9.90151 12.528 9.31055 11.556 9.12965 11.256C8.9608 10.956 9.10553 10.8 9.26231 10.644C9.39497 10.512 9.56382 10.296 9.70854 10.128C9.85327 9.96004 9.91357 9.82804 10.01 9.63604C10.1065 9.43204 10.0583 9.26404 9.98593 9.12004C9.91357 8.97604 9.31055 7.51204 9.06935 6.91205C8.82814 6.33605 8.57487 6.40805 8.39397 6.39605H7.81507C7.61005 6.39605 7.29648 6.46805 7.01909 6.76805C6.75377 7.06805 5.98191 7.78804 5.98191 9.25204C5.98191 10.716 7.05528 12.132 7.2 12.324C7.34472 12.528 9.31055 15.528 12.3015 16.812C13.0131 17.124 13.5678 17.304 14.002 17.436C14.7136 17.664 15.3648 17.628 15.8834 17.556C16.4623 17.472 17.6563 16.836 17.8975 16.14C18.1508 15.444 18.1508 14.856 18.0663 14.724C17.9819 14.592 17.801 14.532 17.4995 14.388Z" fill="currentColor"/>
</symbol>

<symbol id="icon-viber" viewBox="0 0 24 24" fill="none">
  <path d="M12 21.6C14.5461 21.6 16.9879 20.5886 18.7882 18.7882C20.5886 16.9879 21.6 14.5461 21.6 12C21.6 9.45392 20.5886 7.01212 18.7882 5.21178C16.9879 3.41143 14.5461 2.4 12 2.4C9.45392 2.4 7.01212 3.41143 5.21178 5.21178C3.41143 7.01212 2.4 9.45392 2.4 12C2.4 14.5461 3.41143 16.9879 5.21178 18.7882C7.01212 20.5886 9.45392 21.6 12 21.6ZM12 24C5.3724 24 0 18.6276 0 12C0 5.3724 5.3724 0 12 0C18.6276 0 24 5.3724 24 12C24 18.6276 18.6276 24 12 24Z" fill="currentColor" />
  <path d="M16.3731 11.2854C16.3875 9.49499 14.9103 7.85339 13.0803 7.62659L12.9603 7.60859C12.8685 7.59046 12.7754 7.58002 12.6819 7.57739C12.3063 7.57739 12.2067 7.84859 12.1803 8.01059C12.1653 8.07787 12.164 8.14747 12.1763 8.21528C12.1887 8.28309 12.2145 8.34773 12.2523 8.40539C12.3771 8.57939 12.5955 8.60939 12.7707 8.63579C12.8235 8.64219 12.8703 8.65019 12.9111 8.65979C14.5563 9.03779 15.1107 9.63419 15.3807 11.3178C15.3871 11.3602 15.3911 11.409 15.3927 11.4642C15.4047 11.6646 15.4299 12.0834 15.8667 12.0834C15.9027 12.0834 15.9411 12.0802 15.9819 12.0738C16.3887 12.0102 16.3755 11.6274 16.3695 11.4438C16.367 11.3994 16.367 11.355 16.3695 11.3106L16.3719 11.2866L16.3731 11.2854Z" fill="currentColor" />
  <path d="M12.5768 6.96837C12.6248 6.97197 12.6728 6.97557 12.71 6.98157C15.41 7.41117 16.6532 8.73117 16.9976 11.5416C17.0024 11.5904 17.0048 11.6464 17.0048 11.7096C17.0084 11.9292 17.0156 12.3852 17.4908 12.3948H17.5052C17.5705 12.3984 17.6358 12.3879 17.6966 12.3641C17.7575 12.3403 17.8126 12.3037 17.858 12.2568C18.0056 12.0972 17.996 11.8608 17.9876 11.6688C17.9844 11.6224 17.9832 11.5796 17.984 11.5404C18.0176 8.66637 15.608 6.05997 12.8264 5.96397L12.7928 5.96517L12.7604 5.96757C12.7316 5.96757 12.6988 5.96597 12.662 5.96277L12.518 5.95557C12.0752 5.95557 11.9912 6.27957 11.9804 6.47397C11.9564 6.92157 12.3752 6.95397 12.5768 6.96837ZM16.8668 15.1728L16.6952 15.0348C16.4 14.79 16.0856 14.5644 15.7832 14.346L15.5936 14.2092C15.2048 13.9284 14.8556 13.7904 14.5256 13.7904C14.0816 13.7904 13.694 14.0448 13.3736 14.5452C13.2336 14.7652 13.0584 14.8748 12.848 14.874C12.7006 14.8686 12.5561 14.8314 12.4244 14.7648C11.1704 14.1768 10.274 13.2768 9.76164 12.0888C9.51444 11.5128 9.59364 11.1384 10.0304 10.8324C10.2776 10.6596 10.7384 10.3368 10.706 9.71877C10.67 9.01677 9.16884 6.90477 8.53644 6.66477C8.26659 6.56339 7.96926 6.56254 7.69884 6.66237C6.97284 6.91437 6.45084 7.35837 6.19044 7.94277C5.93844 8.50917 5.95044 9.17277 6.22404 9.86397C7.01244 11.8632 8.12004 13.6056 9.51924 15.0432C10.8872 16.4508 12.5696 17.6028 14.5184 18.4692C14.6936 18.5472 14.8784 18.5892 15.0128 18.6204L15.1268 18.6492C15.1426 18.6532 15.1586 18.6556 15.1748 18.6564H15.1904C16.1072 18.6564 17.2076 17.7924 17.546 16.806C17.8424 15.942 17.3012 15.516 16.8668 15.174V15.1728ZM12.9824 9.25197C12.8264 9.25557 12.4988 9.26397 12.3836 9.60717C12.3308 9.76877 12.3372 9.90677 12.4028 10.0212C12.5 10.1892 12.6872 10.2408 12.8564 10.2684C13.4708 10.3704 13.7876 10.722 13.85 11.3724C13.88 11.6772 14.078 11.8884 14.3324 11.8884L14.39 11.886C14.6964 11.8468 14.8432 11.6168 14.8304 11.196C14.8352 10.7568 14.6132 10.26 14.2352 9.86397C13.856 9.46557 13.3988 9.24117 12.9824 9.25197Z" fill="currentColor" />
</symbol>

<symbol id="scroll-top-btn" viewBox="0 0 20 12" fill="none">
  <path d="M0.462617 11.3032C0.743909 11.5845 1.12537 11.7424 1.52312 11.7424C1.92086 11.7424 2.30233 11.5845 2.58362 11.3032L10.0086 3.87825L17.4336 11.3032C17.7165 11.5765 18.0954 11.7277 18.4887 11.7243C18.882 11.7208 19.2582 11.5631 19.5363 11.285C19.8145 11.0069 19.9722 10.6306 19.9756 10.2373C19.979 9.84405 19.8279 9.46515 19.5546 9.18225L11.0691 0.696748C10.7878 0.415541 10.4064 0.257568 10.0086 0.257568C9.61087 0.257568 9.22941 0.415541 8.94812 0.696748L0.462617 9.18225C0.181411 9.46354 0.0234375 9.845 0.0234375 10.2427C0.0234375 10.6405 0.181411 11.022 0.462617 11.3032Z" fill="currentColor"/>
</symbol>

<!-- star -->
<symbol id="star-icon" viewBox="0 0 23 23">
  <path fill="currentColor" d="M11.5 0l2.9 6.6 6.8.6-5.1 4.5 1.6 6.7-6.2-3.7-6.2 3.7 1.6-6.7L1.8 7.2l6.8-.6z"/>
</symbol>

</svg>
